<svg xmlns="http://www.w3.org/2000/svg" version="1.1" xmlns:xlink="http://www.w3.org/1999/xlink" xmlns:svgjs="http://svgjs.dev/svgjs" width="128" height="128" viewBox="0 0 128 128"><g transform="matrix(0.8046875,0,0,0.8046875,12.464300109874998,9.958606291118414)"><svg viewBox="0 0 90 95" data-background-color="#ffffff" preserveAspectRatio="xMidYMid meet" height="135" width="128" xmlns="http://www.w3.org/2000/svg" xmlns:xlink="http://www.w3.org/1999/xlink"><g id="tight-bounds" transform="matrix(1,0,0,1,0.031194078750004905,-0.24049999999999727)"><svg viewBox="0 0 89.93761184249999 95.481" height="95.481" width="89.93761184249999"><g><svg viewBox="0 0 89.93761184249999 95.481" height="95.481" width="89.93761184249999"><g><svg viewBox="0 0 89.93761184249999 95.481" height="95.481" width="89.93761184249999"><g id="textblocktransform"><svg viewBox="0 0 89.93761184249999 95.481" height="95.481" width="89.93761184249999" id="textblock"><g><svg viewBox="0 0 89.93761184249999 95.481" height="95.481" width="89.93761184249999"><g><svg viewBox="0 0 89.93761184249999 95.481" height="95.481" width="89.93761184249999"><g><svg xmlns="http://www.w3.org/2000/svg" xmlns:xlink="http://www.w3.org/1999/xlink" version="1.1" x="0" y="0" viewBox="2.9025 0 94.19425 100" enable-background="new 0 0 100 100" xml:space="preserve" height="95.481" width="89.93761184249999" class="icon-icon-0" data-fill-palette-color="accent" id="icon-0"><path fill-rule="evenodd" clip-rule="evenodd" d="M43.16 80.52c0 1.66-1.34 3-3 3H28.21c-1.65 0-3-1.34-3-3v-9.85c0-1.66 1.35-3 3-3h11.95c1.66 0 3 1.34 3 3V80.52zM12.11 59.82V95c0 2.76 2.24 5 5 5h37.919V70.67c0-1.66 1.341-3 3-3H71.87c1.649 0 3 1.34 3 3V100h8.35c2.761 0 5-2.24 5-5V60.15L50 21.94 12.11 59.82zM50 0L29.08 20.92V12.2c0-2.45-1.99-4.44-4.45-4.44-2.45 0-4.44 1.99-4.44 4.44v17.61L4.95 45.05c-2.73 2.73-2.73 7.171 0 9.9l2.2 2.2L50 14.29l42.85 42.851 2.2-2.19c2.729-2.74 2.729-7.17 0-9.9L50 0z" fill="#31c48d" data-fill-palette-color="accent"></path></svg></g></svg></g></svg></g></svg></g></svg></g></svg></g><defs></defs></svg><rect width="89.93761184249999" height="95.481" fill="none" stroke="none" visibility="hidden"></rect></g></svg></g></svg>